# xmcd CD database file
# Copyright (C) 1993-1996 Ti Kan
#
# Track frame offsets:
# 150
# 10882
# 24980
# 45017
# 55577
# 68757
# 81975
# 96012
# 108075
# 127677
# 137420
# 152847
# 165747
# 180185
#
# Disc length: 2557 seconds
#
# Revision: 0
# Processed by: cddbd v1.4b41PL1 Copyright (c) Steve Scherf et al.
# Submitted via: inCDius 1.1b5
#
DISCID=9209fb0e
DTITLE=The Osborne Brothers - Hillbilly Fever
DYEAR=1900
DGENRE=
TTITLE0=Hillbilly Fever
TTITLE1=Cincinnati Ohio
TTITLE2=The Last Letter
TTITLE3=Fourteen Carat Mind
TTITLE4=Old Flames Can't Hold A Candle To You
TTITLE5=The Prisoner's Song
TTITLE6=You Are My Flower
TTITLE7=Out Behind The Barn
TTITLE8=Paper Rosie
TTITLE9=Breaking In A Brand New Pair Of Shoes
TTITLE10=Working Man Blues
TTITLE11=The First Fall Of Snow
TTITLE12=Tragic Romance
TTITLE13=Orange Blossom Special
EXTD=
EXTT0=
EXTT1=
EXTT2=
EXTT3=
EXTT4=
EXTT5=
EXTT6=
EXTT7=
EXTT8=
EXTT9=
EXTT10=
EXTT11=
EXTT12=
EXTT13=
PLAYORDER=
